<svg xmlns="http://www.w3.org/2000/svg" width="43.5" height="37.547" viewBox="0 0 29 25.031">
  <defs>
    <style>
      .cls-1 {
        fill: #47bfe9;
        fill-rule: evenodd;
      }
    </style>
  </defs>
  <path id="Form_1" data-name="Form 1" class="cls-1" d="M1439.11,47.652h-3.42a1.225,1.225,0,0,0-.2-0.474l-5.93-8.021a1.8,1.8,0,0,0-.31-1.443,1.753,1.753,0,0,0-2.47-.362,1.8,1.8,0,0,0-.36,2.5,1.755,1.755,0,0,0,1.28.7l5.25,7.1h-14.9l5.25-7.1a1.751,1.751,0,0,0,1.28-.7,1.8,1.8,0,0,0-.36-2.5,1.753,1.753,0,0,0-2.47.362,1.8,1.8,0,0,0-.31,1.442l-5.93,8.022a1.225,1.225,0,0,0-.2.474h-3.42a0.785,0.785,0,0,0-.89.547v2.257a0.785,0.785,0,0,0,.89.547h0.86l2.64,8.418A3.566,3.566,0,0,0,1418.26,62h14.48a3.566,3.566,0,0,0,2.87-2.577L1438.25,51h0.86a0.785,0.785,0,0,0,.89-0.547V48.2A0.785,0.785,0,0,0,1439.11,47.652Zm-20.84,12.254a1.092,1.092,0,0,1-.93-0.84c-0.6-2.382-1.21-4.764-1.81-7.146a0.663,0.663,0,0,1,.71-0.84,1.15,1.15,0,0,1,1.1.84c0.49,2.382.99,4.764,1.48,7.146A0.628,0.628,0,0,1,1418.27,59.907Zm3.62,0a0.932,0.932,0,0,1-.83-0.84q-0.495-3.573-1-7.146a0.756,0.756,0,0,1,.81-0.84,0.988,0.988,0,0,1,1,.84q0.33,3.573.67,7.146A0.712,0.712,0,0,1,1421.89,59.907Zm4.37-.84a0.746,0.746,0,1,1-1.48,0l-0.18-7.146a0.9,0.9,0,0,1,1.8,0C1426.35,54.3,1426.31,56.685,1426.26,59.067Zm4.68-7.146c-0.32,2.382-.65,4.764-0.97,7.146a0.923,0.923,0,0,1-.83.84,0.718,0.718,0,0,1-.65-0.84q0.33-3.573.64-7.146a0.987,0.987,0,0,1,1-.84A0.757,0.757,0,0,1,1430.94,51.921Zm4.53,0q-0.885,3.573-1.78,7.146a1.071,1.071,0,0,1-.93.84,0.633,0.633,0,0,1-.55-0.84q0.735-3.573,1.45-7.146a1.14,1.14,0,0,1,1.1-.84A0.663,0.663,0,0,1,1435.47,51.921Z" transform="translate(-1411 -36.969)"/>
</svg>
